# xmcd
#
# Track frame offsets:
#  150
#  13211
#  25989
#  38805
#  51997
#  64758
#  75503
#  87700
#  99123
#  108739
#  121766
#  133720
#
# Disc length: 1975 seconds
#
# Revision: 0
# Processed by: cddbd v1.5.1PL2 Copyright (c) Steve Scherf et al.
# Submitted via: Collectorz.com_Music_Collector 6.9
#
DISCID=9c07b50c
DTITLE=Mel Tillis - All Time Greatest Hits Disk 1
DYEAR=1951
DGENRE=Country
TTITLE0=01 - Brand New Mister Me
TTITLE1=02 - Don't Let Go
TTITLE2=03 - Woman In The Back Of My Mind
TTITLE3=04 - Memory Maker
TTITLE4=05 - Midnight, Me And The Blues
TTITLE5=06 - Neon Rose
TTITLE6=07 - Sawmill
TTITLE7=08 - Stomp Them Grapes
TTITLE8=09 - Take My Hand (With Sherry Bryce)
TTITLE9=10 - Thank You For Being You
TTITLE10=11 - The Arms Of A Fool
TTITLE11=12 - You Are The One
EXTD=
EXTT0=
EXTT1=
EXTT2=
EXTT3=
EXTT4=
EXTT5=
EXTT6=
EXTT7=
EXTT8=
EXTT9=
EXTT10=
EXTT11=
PLAYORDER=
